<svg viewBox="0 0 24 24" xmlns="http://www.w3.org/2000/svg"><path fill="none" fill-rule="evenodd" d="M0 0l24 0 0 24L0 24Z"/><g><path d="M12.93 16.07l6.42-5.12 .15-.13c.64-.52.75-1.46.24-2.11 -.08-.09-.16-.18-.25-.25L12.9 3.22c-.55-.44-1.33-.44-1.87 0l-6.6 5.24c-.65.51-.76 1.45-.25 2.1 .07.08.15.16.23.23l.15.12 6.43 5.11c.54.43 1.32.43 1.86-.01Z"/><path opacity=".3" fill-rule="evenodd" d="M11.05 18.67l-5.73-4.55c-.4-.32-.96-.25-1.27.14 -.01 0-.01 0-.01 0v0c-.31.39-.24.96.16 1.27 0 0 0 0 0 0l6.86 5.24c.53.41 1.28.41 1.82 0l6.85-5.25c.4-.31.47-.89.17-1.29 -.01-.01-.01-.01-.01-.01v0c-.31-.4-.89-.47-1.28-.17 -.01 0-.01 0-.01 0l-5.73 4.55c-.55.43-1.33.43-1.87 0Z"/></g></svg>