<svg width="27" height="27" viewBox="0 0 27 27" fill="none" xmlns="http://www.w3.org/2000/svg">
<path fill-rule="evenodd" clip-rule="evenodd" d="M4.26 3.85999H6V22.42C6 22.8682 5.82194 23.2981 5.50501 23.615C5.18807 23.9319 4.75821 24.11 4.31 24.11C3.86178 24.11 3.43192 23.9319 3.11498 23.615C2.79805 23.2981 2.62 22.8682 2.62 22.42V5.53999C2.6224 5.10203 2.79472 4.68211 3.10065 4.36872C3.40658 4.05533 3.82223 3.87294 4.26 3.85999V3.85999Z" fill="#D6D6D6"/>
<path fill-rule="evenodd" clip-rule="evenodd" d="M6 3.88999H20.34C20.6336 3.8926 20.9144 4.01038 21.122 4.21798C21.3296 4.42558 21.4474 4.7064 21.45 4.99999C21.4418 5.27277 21.3393 5.53427 21.16 5.73999L17.78 9.49999L21.15 13.25C21.3455 13.4743 21.4455 13.7662 21.4287 14.0633C21.4119 14.3604 21.2795 14.6391 21.06 14.84C20.8464 15.0179 20.578 15.1167 20.3 15.12H6V3.85999V3.88999Z" fill="#F1C510"/>
</svg>
