<svg width="109" height="25" viewBox="0 0 109 25" fill="none" xmlns="http://www.w3.org/2000/svg">
<g>
<path d="M3.46412 4.86185C2.35384 5.83019 1.83253 7.08918 1.5823 8.48411C1.23238 10.4213 1.40988 12.3007 2.25619 14.0953C2.96009 15.5876 3.9778 16.8466 5.2376 17.8997C5.89115 18.4455 6.61082 18.9142 7.30455 19.4108C7.39476 19.4678 7.48873 19.5186 7.58581 19.5629L7.63107 19.5122C7.57798 19.4487 7.52162 19.3879 7.46222 19.3301C6.32804 18.3288 5.30067 17.2337 4.48437 15.9539C3.75758 14.8156 3.2327 13.5997 3.07351 12.2459C3.06792 12.1952 3.06131 12.1444 3.0608 12.0937C3.0608 11.8431 3.0608 11.592 3.0608 11.2689C3.43919 12.3849 4.3267 12.9134 5.18217 13.4765C6.41145 14.2881 7.65447 15.0753 8.86239 15.9153C10.6501 17.1586 11.5071 18.9588 11.8296 21.0538C11.9895 22.0893 12.0226 23.1404 11.9282 24.184C11.913 24.3575 11.8601 24.4036 11.6897 24.3458C10.0418 23.7878 8.45093 23.1056 6.94039 22.2412C5.58142 21.4631 4.33433 20.5389 3.24135 19.4143C1.57518 17.6993 0.466939 15.6926 0.123634 13.3126C-0.164233 11.3141 0.0458184 9.36673 0.928747 7.52998C1.46837 6.40743 2.26077 5.49845 3.37715 4.9004C3.40359 4.8862 3.43411 4.87504 3.46412 4.86185Z" fill="#9C9C9C"/>
<path d="M13.0218 24.5C13.0014 24.1688 12.975 23.8614 12.9653 23.5535C12.9241 22.2732 13.0396 21.0117 13.4068 19.7765C13.9017 18.1138 14.8746 16.8005 16.3058 15.8357C17.6037 14.9622 18.9266 14.1253 20.2312 13.2619C20.9076 12.815 21.5347 12.3144 21.8205 11.5063L21.8999 11.5221C21.8719 11.8832 21.8673 12.2479 21.8119 12.605C21.5179 14.495 20.5913 16.0827 19.3604 17.499C18.7501 18.198 18.06 18.8254 17.4013 19.4808C17.3439 19.5386 17.2559 19.5655 17.1816 19.6066L17.2584 19.6979C17.3178 19.6796 17.3756 19.6567 17.4313 19.6294C19.4235 18.4506 21.1034 16.9481 22.2839 14.9363C23.2121 13.3537 23.6098 11.6392 23.4918 9.81313C23.412 8.58254 23.1953 7.37833 22.5361 6.30601C22.2513 5.84441 21.8867 5.43151 21.5393 4.97144C21.8444 5.18803 22.1588 5.37724 22.4354 5.61209C23.5706 6.56978 24.242 7.81609 24.5822 9.23588C25.2933 12.1921 24.8803 14.9774 23.2406 17.5644C22.2234 19.1693 20.8695 20.4436 19.3157 21.5144C17.4425 22.8058 15.3847 23.725 13.2349 24.4498C13.1815 24.4671 13.125 24.4757 13.0218 24.5Z" fill="#9C9C9C"/>
<path d="M14.0496 8.18636C16.1989 6.6494 15.4823 3.51206 13.0492 2.97387C13.1041 1.84777 14.0572 0.821104 15.2941 0.556827C16.4899 0.303203 17.7914 0.926102 18.3549 2.00959C18.9296 3.11438 18.8065 4.70968 17.3886 5.73229C17.4852 5.77389 17.565 5.81091 17.6464 5.84287C19.6238 6.61795 20.8725 8.44303 20.8725 10.5603C20.8725 11.0168 20.8648 11.4733 20.876 11.9299C20.8806 12.1064 20.8425 12.2439 20.6934 12.3448C20.0221 12.8013 19.3548 13.2578 18.6794 13.7083C18.3234 13.9457 17.9501 14.1618 17.534 14.4184C17.534 14.2348 17.5416 14.0958 17.534 13.9584C17.4832 13.2274 17.5274 12.4747 17.3621 11.7711C16.9735 10.119 15.9294 8.97361 14.3614 8.30962C14.2642 8.27057 14.1696 8.23455 14.0496 8.18636Z" fill="#616161"/>
<path d="M7.36201 14.3494L4.25548 12.251C4.11664 12.1571 4.07239 12.0323 4.07747 11.8619C4.1029 11.0533 4.01695 10.2387 4.2092 9.43927C4.62778 7.70296 5.67295 6.50686 7.32997 5.8378C7.40575 5.80737 7.48255 5.7749 7.57105 5.73635C6.15866 4.71221 6.05389 3.17525 6.54062 2.13133C7.06245 1.01538 8.2363 0.367624 9.5022 0.527408C10.1196 0.611353 10.692 0.896271 11.1304 1.33792C11.5688 1.77956 11.8487 2.35322 11.9267 2.96981C10.7518 3.28431 9.93807 3.99699 9.68886 5.21642C9.43964 6.43585 9.89993 7.41484 10.8825 8.15542C10.5011 8.35325 10.1079 8.51354 9.76108 8.74383C8.27648 9.72891 7.4856 11.1122 7.44339 12.9033C7.43271 13.3654 7.44339 13.8275 7.44339 14.2896L7.36201 14.3494Z" fill="#616161"/>
<path d="M105.17 6.37547C104.861 6.61438 104.851 6.61996 105.037 6.95323C105.417 7.63192 105.808 8.30403 106.195 8.97816C106.222 9.01843 106.252 9.05689 106.285 9.09331C106.331 9.02534 106.371 8.97512 106.403 8.91932C106.708 8.37319 107.01 7.8262 107.311 7.27837C107.362 7.1896 107.409 7.10033 107.449 7.0075C107.583 6.69808 107.548 6.57989 107.229 6.38308H109.001C108.947 6.4196 108.926 6.44496 108.899 6.448C108.449 6.49873 108.179 6.79496 107.961 7.15105C107.565 7.80033 107.158 8.44352 106.797 9.11157C106.662 9.36063 106.601 9.66954 106.581 9.95411C106.548 10.4081 106.575 10.8672 106.581 11.3237C106.588 11.7625 106.694 11.8664 107.14 11.8883C107.207 11.8928 107.273 11.9011 107.339 11.9131C107.351 11.9131 107.359 11.9369 107.396 11.9841H105.03L105.023 11.9304C105.049 11.9146 105.077 11.9025 105.107 11.8943C105.528 11.8335 105.594 11.7873 105.615 11.3602C105.639 10.8626 105.683 10.3538 105.607 9.86737C105.547 9.4915 105.345 9.12527 105.152 8.78592C104.809 8.18483 104.431 7.6025 104.052 7.02221C103.902 6.79141 103.721 6.57482 103.394 6.49366C103.377 6.80815 103.361 7.10692 103.343 7.40671L103.266 7.43258C103.216 6.82895 102.783 6.80206 102.351 6.78735C102.04 6.77721 101.729 6.78735 101.397 6.78735C101.391 6.85786 101.379 6.93953 101.379 7.0212C101.382 8.42425 101.387 9.82764 101.392 11.2314C101.392 11.2735 101.392 11.3161 101.396 11.3582C101.425 11.7716 101.529 11.8725 101.942 11.8918C102.021 11.8959 102.101 11.904 102.18 11.9101L102.178 11.9841H99.7653C99.8533 11.9248 99.8711 11.9035 99.8919 11.9004C100.359 11.8274 100.368 11.8264 100.42 11.3633C100.441 11.1441 100.449 10.9239 100.445 10.7038C100.447 9.47797 100.447 8.25212 100.445 7.02627C100.445 6.94409 100.435 6.86192 100.427 6.74525C99.9067 6.77163 99.395 6.7554 98.9017 6.84214C98.6983 6.87764 98.534 7.1333 98.355 7.28649C98.2904 7.19975 98.3885 6.53576 98.534 6.29684C98.8941 6.32322 99.2374 6.36786 99.5812 6.36938C100.674 6.37547 101.768 6.36532 102.86 6.36177C103.584 6.35974 104.309 6.3589 105.033 6.35924C105.079 6.36128 105.125 6.3667 105.17 6.37547Z" fill="#9C9C9C"/>
<path d="M81.6606 6.22784C82.3839 6.24205 83.0629 6.38814 83.6549 6.81473C84.3883 7.34329 84.6802 8.10162 84.6929 8.96902C84.7082 9.98352 84.3664 10.859 83.5409 11.4997C82.2059 12.535 79.4325 12.4066 78.7092 10.1469C78.163 8.43894 79.0932 6.72343 80.8062 6.3369C81.0859 6.274 81.3758 6.26284 81.6606 6.22784ZM79.5596 8.8696C79.5871 9.14149 79.5978 9.3525 79.6308 9.55946C79.7478 10.2833 80.0341 10.9174 80.645 11.3627C81.8086 12.2098 83.2287 11.6924 83.5526 10.3041C83.7034 9.6865 83.7034 9.04183 83.5526 8.42423C83.4102 7.85256 83.1396 7.35901 82.6646 6.98872C81.772 6.29379 80.0153 6.38002 79.6771 8.05394C79.6212 8.34155 79.5932 8.63677 79.5596 8.8696Z" fill="#9C9C9C"/>
<path d="M93.6331 11.9846H91.6211L91.6165 11.9141C91.6852 11.9055 91.7538 11.8928 91.8235 11.8882C92.1475 11.8669 92.2487 11.7868 92.2614 11.4561C92.2889 10.7642 92.3001 10.0713 92.3123 9.37888C92.3306 8.4075 92.3433 7.43611 92.3631 6.46473C92.3631 6.39169 92.414 6.31915 92.4399 6.24661C92.5081 6.28922 92.589 6.31966 92.6434 6.37596C93.9501 7.72423 95.2556 9.07402 96.5596 10.4253C96.6049 10.472 96.6552 10.5136 96.7386 10.5897C96.7386 10.401 96.7386 10.2539 96.7386 10.1068C96.7213 9.14301 96.701 8.17923 96.6878 7.2185C96.6776 6.60422 96.6328 6.54842 96.0368 6.45154C96.0171 6.44923 95.9983 6.44197 95.9822 6.43043C95.9661 6.4189 95.9532 6.40347 95.9447 6.3856H97.8682L97.8789 6.40944C97.833 6.42715 97.7861 6.44222 97.7385 6.45458C97.3662 6.52813 97.2905 6.61234 97.2808 6.99937C97.261 7.84394 97.2452 8.68851 97.2299 9.53562C97.2147 10.2874 97.2009 11.0391 97.1791 11.7903C97.169 11.8866 97.1505 11.9819 97.1236 12.0749C97.0245 12.0242 96.9049 11.9937 96.8287 11.9192C96.3307 11.4363 95.8369 10.9493 95.3537 10.4527C94.5618 9.64112 93.7771 8.82293 92.9918 8.00778C92.947 7.96213 92.8977 7.92104 92.8173 7.84648C92.8173 8.26141 92.8087 8.62916 92.8173 8.99641C92.8387 9.74714 92.8611 10.4984 92.9012 11.2486C92.9292 11.7772 92.9964 11.8299 93.5334 11.8933C93.5713 11.9024 93.6079 11.9162 93.6423 11.9344L93.6331 11.9846Z" fill="#9C9C9C"/>
<path d="M88.4154 19.151H87.0361C87.4196 19.1201 87.4826 18.832 87.5269 18.5423C87.7374 17.1763 87.9414 15.8093 88.1499 14.4428C88.1713 14.3382 88.198 14.2347 88.2298 14.1328L88.3172 14.1105L90.2382 18.0407C90.8841 16.6954 91.5021 15.4101 92.15 14.0608C92.2172 14.1932 92.2675 14.253 92.2777 14.319C92.4191 15.2696 92.5549 16.2207 92.6927 17.1718C92.7507 17.5725 92.8036 17.9742 92.8692 18.3739C92.9669 18.9689 93.0167 19.0146 93.6285 19.1267H92.1658C92.1445 18.8294 92.1383 18.5748 92.1063 18.3227C92.0102 17.5705 91.9029 16.8187 91.8011 16.067C91.7789 15.9745 91.7514 15.8834 91.7188 15.7941L90.0821 19.15L89.9727 19.1571C89.4407 18.0821 88.9084 17.0074 88.3757 15.9331H88.3249C88.2908 16.1436 88.2526 16.3541 88.2231 16.5651C88.1397 17.1834 88.0599 17.8028 87.979 18.4211C87.976 18.4465 87.9724 18.4718 87.9699 18.4967C87.9185 18.9892 87.9475 19.0293 88.4154 19.151Z" fill="#616161"/>
<path d="M85.1664 6.37698H87.4414C87.4414 6.39017 87.445 6.40336 87.4465 6.41706C87.4028 6.43024 87.36 6.44648 87.3158 6.45611C86.8875 6.54894 86.8448 6.58394 86.8433 7.02728C86.8387 8.05852 86.8352 9.09026 86.858 10.1215C86.8687 10.6019 86.9954 11.0619 87.387 11.3927C87.862 11.7929 88.4042 11.8279 88.9636 11.6199C89.5231 11.4119 89.7881 10.9549 89.8094 10.4025C89.8527 9.26324 89.8522 8.11989 89.8496 6.98162C89.8496 6.60017 89.755 6.53524 89.3593 6.47437C89.2814 6.46682 89.2079 6.43486 89.1493 6.38307H91.1054L91.1166 6.42872C91.0431 6.4524 90.9677 6.46938 90.8912 6.47945C90.6069 6.49263 90.5128 6.66307 90.5113 6.9167C90.5078 7.57612 90.5113 8.23555 90.4976 8.89497C90.4864 9.36722 90.4823 9.84353 90.4147 10.3092C90.2514 11.4251 89.5135 12.082 88.3722 12.0977C87.9344 12.1029 87.4984 12.0404 87.0798 11.9126C86.4964 11.7325 86.1506 11.273 86.0117 10.6876C85.9389 10.3585 85.9002 10.0228 85.8963 9.68577C85.8739 8.82345 85.8861 7.96112 85.8632 7.0988C85.849 6.54995 85.8317 6.55046 85.2977 6.45713C85.2499 6.44901 85.2031 6.43532 85.1558 6.42467L85.1664 6.37698Z" fill="#9C9C9C"/>
<path d="M56.9819 19.1556H55.1102C55.2262 19.0815 55.3905 19.0288 55.4617 18.9172C55.5329 18.8056 55.5395 18.626 55.5425 18.4764C55.5522 17.9524 55.5425 17.4284 55.5522 16.9039C55.5563 16.7127 55.5049 16.629 55.2979 16.6315C54.5859 16.6402 53.8738 16.6315 53.1618 16.6412C53.0804 16.6412 52.9309 16.734 52.9304 16.7852C52.9217 17.4183 52.9304 18.0534 52.9426 18.6854C52.9497 19.0658 53.2274 19.11 53.5198 19.1475H51.638L51.6304 19.1252C51.6784 19.1127 51.7272 19.1032 51.7764 19.0968C51.9696 19.0836 52.0668 18.9735 52.0856 18.7924C52.1069 18.5824 52.1364 18.3719 52.1364 18.1614C52.1422 17.1219 52.1432 16.0823 52.1395 15.0428C52.1395 14.4397 52.1242 14.426 51.5292 14.2632H53.3693C52.8963 14.3078 52.9116 14.6502 52.9156 14.9911C52.9202 15.3715 52.9217 15.752 52.9156 16.1324C52.9156 16.2846 52.9751 16.3465 53.1236 16.346C53.8611 16.346 54.5986 16.3424 55.3355 16.346C55.5003 16.346 55.5542 16.2754 55.5507 16.1146C55.542 15.7342 55.5507 15.3538 55.5507 14.9733C55.5507 14.425 55.5288 14.4017 54.9358 14.2667H56.8329C56.3639 14.4321 56.3339 14.4722 56.3329 14.9667C56.3329 16.0489 56.3329 17.131 56.3329 18.2131C56.3329 18.2806 56.3329 18.3481 56.3385 18.416C56.3771 19.0192 56.398 19.0415 56.9819 19.1556Z" fill="#616161"/>
<path d="M28.5198 14.2602H30.394C29.8752 14.4255 29.8798 14.4255 29.8742 14.9541C29.8706 15.3335 29.8564 15.715 29.8396 16.0923C29.8315 16.2785 29.9113 16.346 30.0939 16.346C30.8146 16.3409 31.5348 16.3399 32.2549 16.346C32.4584 16.346 32.5153 16.2628 32.5092 16.071C32.4965 15.6997 32.5062 15.3274 32.5031 14.9551C32.4991 14.427 32.4574 14.3809 31.9238 14.2673H33.7278C33.6175 14.3307 33.4344 14.3784 33.3581 14.4955C33.2818 14.6127 33.2894 14.8029 33.2884 14.9612C33.2833 16.0599 33.2854 17.1591 33.2854 18.2583C33.2854 18.309 33.2854 18.3598 33.2854 18.4105C33.3032 19.0035 33.3515 19.0567 33.9277 19.1632H32.0591C32.5321 19.1166 32.4782 18.7361 32.4935 18.4429C32.522 17.9119 32.5011 17.3777 32.5072 16.8461C32.5072 16.6939 32.4421 16.6331 32.2946 16.6336C31.5487 16.6356 30.8027 16.6356 30.0568 16.6336C29.9042 16.6336 29.8411 16.7056 29.8442 16.8502C29.8579 17.4665 29.8676 18.0828 29.8879 18.6991C29.896 18.9487 30.0374 19.0831 30.2948 19.0922C30.3765 19.0908 30.4572 19.1102 30.5293 19.1485H28.533C28.9994 19.0364 29.0416 19.0106 29.0467 18.5956C29.0696 17.3965 29.0848 16.1973 29.0858 14.9982C29.0864 14.4235 29.0553 14.4068 28.5198 14.2602Z" fill="#616161"/>
<path d="M77.9361 10.6729C77.866 11.0422 77.8049 11.4135 77.719 11.7792C77.7027 11.8497 77.5959 11.9349 77.5181 11.9506C76.1144 12.2306 74.732 12.2687 73.5836 11.2445C72.6681 10.4274 72.5155 9.34592 72.8441 8.21932C73.1691 7.10641 73.992 6.49467 75.1221 6.31155C76.0447 6.15938 76.9591 6.26844 77.8838 6.48097C77.8624 6.95779 77.8415 7.42851 77.8212 7.90127L77.7495 7.90938C77.7271 7.86221 77.688 7.81656 77.6844 7.76888C77.6452 7.19772 77.2989 6.89337 76.7872 6.7346C76.2775 6.57015 75.7327 6.54631 75.2106 6.66561C74.982 6.7157 74.7662 6.81221 74.5767 6.94914C74.3871 7.08607 74.2279 7.26048 74.109 7.46149C73.493 8.46736 73.6329 10.0292 74.4268 10.8991C75.1089 11.6468 75.9684 11.835 76.9291 11.6199C77.336 11.5281 77.6061 11.2552 77.7358 10.853C77.7621 10.7821 77.7921 10.7127 77.8258 10.645L77.9361 10.6729Z" fill="#9C9C9C"/>
<path d="M63.3812 11.9811H60.9714C61.0518 11.9212 61.0691 11.8984 61.0889 11.8948C61.5599 11.8157 61.6117 11.7665 61.627 11.2821C61.6407 10.8433 61.6621 10.4015 61.627 9.96323C61.6073 9.69498 61.5309 9.43393 61.4027 9.19729C61.0202 8.52112 60.6047 7.86373 60.1912 7.20532C59.9598 6.83706 59.6994 6.49111 59.2218 6.38408H61.1438C61.0665 6.47082 60.9404 6.54843 60.9271 6.64329C60.9139 6.73814 60.9923 6.86445 61.0492 6.9664C61.4469 7.67199 61.8487 8.37503 62.2622 9.10142C62.3037 9.06356 62.3413 9.02177 62.3746 8.97663C62.7066 8.37808 63.037 7.77885 63.3659 7.17894C63.3946 7.12733 63.4204 7.07415 63.4432 7.01966C63.5821 6.67981 63.5602 6.59865 63.255 6.38459C63.296 6.37051 63.3382 6.36049 63.3812 6.35466C64.05 6.3501 64.7193 6.3506 65.3881 6.34198C65.6078 6.34198 65.6607 6.40082 65.6053 6.62959C65.4954 7.07851 65.4288 7.53858 65.3439 7.99358C65.3347 8.07219 65.3004 8.14579 65.2462 8.20359C65.1418 7.63039 65.0377 7.05805 64.9339 6.48654C64.6476 6.46321 64.4391 6.54691 64.3084 6.73002C63.9523 7.22358 63.5963 7.71662 63.2912 8.2396C62.4001 9.76135 62.5954 9.24852 62.5791 11.1573C62.5791 11.1913 62.5852 11.2248 62.5867 11.2587C62.6116 11.799 62.6773 11.8644 63.2113 11.8882C63.2662 11.8908 63.3206 11.9045 63.3756 11.9126L63.3812 11.9811Z" fill="#9C9C9C"/>
<path d="M99.7048 19.15H98.0818C98.5966 19.0344 98.5726 19.045 98.6128 18.4632C98.651 17.9164 98.622 17.3655 98.6301 16.8162C98.6418 16.0046 98.6601 15.1955 98.6774 14.3849C98.6774 14.3215 98.6942 14.2586 98.7151 14.1156L102.492 17.9732C102.508 17.8659 102.519 17.7579 102.523 17.6496C102.51 16.9394 102.494 16.2306 102.476 15.5232C102.469 15.2621 102.457 15.0011 102.44 14.74C102.42 14.4458 102.341 14.3824 101.815 14.2596H103.443C102.996 14.3961 102.925 14.4914 102.919 14.9297C102.9 16.2724 102.884 17.6146 102.861 18.9573C102.861 19.041 102.816 19.1242 102.793 19.2078C102.716 19.1637 102.624 19.1343 102.564 19.0734C101.472 17.9669 100.382 16.8576 99.2949 15.7454C99.2349 15.6745 99.1807 15.599 99.1326 15.5196L99.0472 15.5597C99.0301 15.6421 99.0197 15.7257 99.0162 15.8098C99.0406 16.6214 99.0695 17.4284 99.0965 18.238C99.0965 18.3055 99.0965 18.3734 99.0965 18.4409C99.1163 18.9735 99.1911 19.0567 99.7048 19.15Z" fill="#616161"/>
<path d="M78.2098 14.2769C79.0383 14.2769 79.7916 14.2546 80.5428 14.2825C81.5366 14.32 82.0442 15.2584 81.5356 16.1116C81.3693 16.3906 81.1287 16.6239 80.8907 16.9121C81.0799 17.153 81.2828 17.4193 81.4939 17.677C81.7395 17.9783 81.9882 18.2776 82.244 18.5708C82.4999 18.8639 82.8183 19.0851 83.275 19.1166C82.3595 19.3453 81.7619 19.1384 81.2406 18.4318C80.9741 18.0716 80.7177 17.7039 80.4558 17.3402C80.3129 17.1423 79.8536 17.0034 79.6395 17.1058C79.6125 17.1231 79.5898 17.1463 79.5733 17.1738C79.5568 17.2013 79.5469 17.2322 79.5444 17.2641C79.5525 17.7713 79.552 18.2786 79.5953 18.7813C79.6222 19.1161 79.9198 19.0922 80.1629 19.1419H78.3497C78.8273 19.1034 78.7942 18.7468 78.7978 18.4125C78.8085 17.4244 78.8227 16.4342 78.8283 15.4476C78.8283 15.1864 78.808 14.9252 78.7942 14.6639C78.7846 14.4904 78.6966 14.3814 78.5221 14.3464C78.4372 14.3301 78.3563 14.3104 78.2098 14.2769ZM79.5322 15.6368C79.5322 15.9412 79.523 16.2455 79.5378 16.5499C79.5419 16.6356 79.5998 16.7771 79.6599 16.7928C80.261 16.9516 80.7223 16.9029 80.9314 16.2268C80.9704 16.0974 80.9926 15.9636 80.9975 15.8286C81.0382 14.9155 80.4935 14.4661 79.8313 14.4986C79.5983 14.5102 79.5174 14.603 79.5261 14.8252C79.5398 15.0946 79.5322 15.3654 79.5322 15.6368Z" fill="#616161"/>
<path d="M36.1793 11.9846H33.7705C33.8519 11.9278 33.8723 11.8989 33.9007 11.8959C34.3539 11.8406 34.4215 11.7721 34.4297 11.309C34.446 10.3888 34.4588 9.46835 34.4683 8.54752C34.4734 8.02404 34.4643 7.50005 34.4719 6.97505C34.4744 6.79802 34.418 6.73968 34.2354 6.75338C33.8794 6.78077 33.5234 6.79142 33.1673 6.79396C32.8286 6.7965 32.5723 6.90505 32.4665 7.25404C32.4486 7.28982 32.425 7.32252 32.3968 7.35092L32.3185 7.33317C32.3765 6.98063 32.435 6.62809 32.4838 6.33084C33.325 6.34555 34.1235 6.36533 34.9251 6.37193C35.7266 6.37852 36.5307 6.37193 37.348 6.37193V7.39454L37.2972 7.40317C37.2753 7.37273 37.2346 7.34179 37.2346 7.31135C37.2346 6.9999 37.0312 6.86599 36.7728 6.83505C36.3237 6.78432 35.87 6.76403 35.4159 6.7336C35.4005 6.77831 35.3893 6.82432 35.3823 6.87106C35.3843 8.30759 35.3869 9.7448 35.3899 11.1827C35.3899 11.2167 35.3899 11.2507 35.3945 11.2841C35.4453 11.8132 35.4932 11.8588 36.0246 11.8928C36.0776 11.8995 36.13 11.9102 36.1813 11.9248L36.1793 11.9846Z" fill="#9C9C9C"/>
<path d="M69.4793 7.54772C69.4598 7.50389 69.4443 7.45839 69.433 7.41177C69.3043 6.58344 68.4717 6.43431 67.929 6.67779C67.8296 6.72229 67.7413 6.78824 67.6705 6.8709C67.5997 6.95355 67.5482 7.05085 67.5197 7.15576C67.4912 7.26067 67.4864 7.37059 67.5056 7.47758C67.5249 7.58457 67.5677 7.68597 67.631 7.77446C67.7993 8.01033 68.0379 8.19903 68.2545 8.39736C68.6223 8.73316 69.0434 9.02178 69.3603 9.39867C70.0398 10.2062 69.8465 11.3866 68.9783 11.8522C68.2729 12.2301 67.5282 12.189 66.7913 11.9324C66.7252 11.9095 66.6346 11.8223 66.6351 11.766C66.6397 11.3698 66.6651 10.9737 66.686 10.578C66.686 10.5603 66.7191 10.5445 66.7755 10.4913C66.7918 10.6003 66.8055 10.6749 66.8142 10.7505C66.9093 11.5991 67.7856 12.049 68.5389 11.6356C69.0088 11.3774 69.1446 10.7535 68.786 10.2721C68.5826 9.99976 68.2957 9.78925 68.0435 9.55389C67.7536 9.28352 67.4331 9.04157 67.1753 8.74229C66.777 8.27461 66.6392 7.71968 66.8823 7.13431C67.1254 6.54894 67.6503 6.30952 68.2423 6.27199C68.633 6.24561 69.0317 6.31916 69.4254 6.36228C69.49 6.36938 69.5988 6.45105 69.5983 6.49771C69.5952 6.8467 69.5698 7.19619 69.5515 7.54518L69.4793 7.54772Z" fill="#9C9C9C"/>
<path d="M31.5205 7.55332C31.5073 7.49397 31.4926 7.43513 31.4814 7.37528C31.343 6.63976 30.4047 6.2994 29.8177 6.77266C29.4948 7.03238 29.4409 7.51223 29.7379 7.85868C29.9449 8.10014 30.2078 8.29289 30.4464 8.50644C30.7546 8.78188 31.0811 9.03906 31.3669 9.3358C31.6985 9.68073 31.8328 10.1215 31.7962 10.5943C31.7372 11.3552 31.3268 11.8335 30.5811 12.0288C30.0191 12.1764 29.4597 12.1424 28.9063 11.9664C28.7359 11.9126 28.6607 11.8142 28.6703 11.6341C28.6896 11.2669 28.6983 10.8991 28.7115 10.5319L28.8046 10.5207C28.8259 10.6075 28.8554 10.6927 28.8677 10.7804C29.005 11.7818 29.9591 11.9339 30.5191 11.6661C30.9824 11.4434 31.1767 10.9357 30.9367 10.469C30.8126 10.2286 30.6183 10.0125 30.4189 9.82479C30.0756 9.50065 29.6855 9.22522 29.3483 8.8955C28.918 8.47449 28.7303 7.94796 28.856 7.34636C28.9785 6.75846 29.4999 6.33187 30.2378 6.27302C30.6447 6.24056 31.0608 6.31614 31.4707 6.35773C31.5348 6.36433 31.6416 6.44955 31.6416 6.49774C31.6416 6.84672 31.6167 7.19571 31.6004 7.5452L31.5205 7.55332Z" fill="#9C9C9C"/>
<path d="M71.5741 16.905C72.1971 16.7741 72.5287 16.4053 72.577 15.7713C72.6172 15.2447 72.3034 14.7147 71.8477 14.5483C71.7599 14.5189 71.6692 14.499 71.5771 14.4889C71.2374 14.4453 71.1759 14.5011 71.1759 14.844C71.1759 16.0103 71.1759 17.177 71.1759 18.344C71.1759 18.3613 71.1759 18.378 71.1759 18.3948C71.184 18.9893 71.242 19.0542 71.8279 19.1627H69.9232C70.0534 19.0846 70.2283 19.0344 70.3021 18.9198C70.3819 18.797 70.3916 18.6154 70.3926 18.4566C70.4014 17.248 70.4041 16.0394 70.4008 14.8308C70.4008 14.4448 70.3438 14.3966 69.8566 14.2632H70.2014C70.7934 14.2632 71.3859 14.2551 71.9779 14.2723C72.6843 14.2926 73.1344 14.597 73.2565 15.1032C73.4004 15.7007 73.1039 16.4073 72.5638 16.7264C72.2692 16.9106 71.9147 16.9746 71.5741 16.905Z" fill="#616161"/>
<path d="M74.376 19.1521H72.894C73.3421 19.1181 73.5099 18.8036 73.6523 18.4419C74.1816 17.1078 74.7163 15.776 75.2564 14.4463C75.3012 14.3352 75.3653 14.2317 75.4202 14.1242H75.5056C75.6445 14.4534 75.7859 14.7836 75.9217 15.1123C76.3891 16.2531 76.8524 17.395 77.3224 18.5358C77.4551 18.8579 77.6616 19.1029 78.0486 19.1419H76.6047C76.5859 19.0004 76.589 18.8543 76.5447 18.7234C76.4196 18.3562 76.2853 17.9905 76.1317 17.6344C76.0951 17.5502 75.971 17.4538 75.883 17.4497C75.4761 17.4305 75.0693 17.433 74.6624 17.4497C74.6135 17.4567 74.5669 17.4747 74.5261 17.5024C74.4852 17.5301 74.4513 17.5667 74.4269 17.6095C74.2891 17.9265 74.1685 18.2517 74.0607 18.5799C73.9331 18.97 73.9931 19.0597 74.376 19.1521ZM74.6008 17.1444H75.9542C75.7325 16.5494 75.5255 15.996 75.319 15.442L75.2371 15.4512L74.6008 17.1444Z" fill="#616161"/>
<path d="M94.2521 19.1368C94.5491 19.1074 94.6701 18.9339 94.6742 18.6428C94.6793 18.2715 94.7073 17.9007 94.7088 17.5294C94.7134 16.7097 94.7088 15.8894 94.7057 15.0692C94.7057 14.4352 94.6991 14.4296 94.0507 14.2531H97.1419C97.1165 14.5249 97.0911 14.7902 97.0672 15.056C96.9594 14.5361 96.5459 14.5787 96.1725 14.5549C96.0881 14.5493 96.0032 14.5549 95.9182 14.5549C95.404 14.5427 95.4941 14.5437 95.489 14.9911C95.4849 15.3715 95.4961 15.752 95.4844 16.1324C95.4788 16.3262 95.5353 16.4129 95.7433 16.3997C95.9513 16.3865 96.168 16.4094 96.378 16.3916C96.5881 16.3739 96.8017 16.3252 97.029 16.2876C97.0072 16.5585 96.9817 16.8689 96.9517 17.2372C96.8078 16.7249 96.7483 16.6792 96.2443 16.6843C96.0022 16.6843 95.6848 16.6219 95.5414 16.7477C95.4193 16.8552 95.4905 17.19 95.4905 17.4244C95.4859 17.746 95.4859 18.067 95.4931 18.3881C95.4997 18.6788 95.6136 18.8066 95.8948 18.8472C96.0364 18.8715 96.18 18.8826 96.3236 18.8802C97.0585 18.8447 97.0641 18.8046 97.2655 18.2933L97.3327 18.3044C97.2874 18.5692 97.2498 18.8355 97.1887 19.0968C97.1801 19.1353 97.0601 19.1698 96.9919 19.1693C96.4075 19.1637 95.8221 19.1475 95.2393 19.1389C94.9092 19.1323 94.5806 19.1368 94.2521 19.1368Z" fill="#616161"/>
<path d="M65.7542 14.251H68.7697C68.7468 14.5255 68.7239 14.7963 68.7016 15.0667L68.6319 15.1139C68.6354 14.6066 68.2886 14.5853 67.9534 14.5615C67.7335 14.5425 67.5124 14.5412 67.2922 14.5574C67.2266 14.563 67.1183 14.669 67.1168 14.7314C67.102 15.2214 67.104 15.7119 67.1142 16.2024C67.1142 16.2648 67.1936 16.38 67.2353 16.38C67.6488 16.3759 68.0622 16.3551 68.4747 16.3292C68.5256 16.3262 68.5764 16.275 68.6639 16.2232C68.636 16.5636 68.6131 16.8725 68.5856 17.1748C68.5032 17.0303 68.4564 16.8466 68.3399 16.769C68.2108 16.6863 68.019 16.6924 67.8527 16.6797C67.6757 16.6661 67.4967 16.6823 67.3192 16.6732C67.1697 16.6655 67.102 16.7188 67.104 16.8761C67.1091 17.3661 67.099 17.8561 67.1117 18.3471C67.1213 18.7067 67.2236 18.8036 67.5806 18.8482C67.7229 18.8686 67.8666 18.8775 68.0104 18.8746C68.5795 18.8493 68.7102 18.8376 68.9538 18.2892C68.9157 18.5459 68.8872 18.8051 68.8323 19.0582C68.8216 19.109 68.7051 19.1637 68.638 19.1637C68.046 19.1607 67.4535 19.1435 66.8614 19.1353C66.5344 19.1303 66.2074 19.1353 65.859 19.1247C66.3045 19.1064 66.3167 18.7793 66.3198 18.4805C66.3315 17.2555 66.3299 16.03 66.3249 14.8044C66.3249 14.4347 66.2425 14.3713 65.7542 14.251Z" fill="#616161"/>
<path d="M37.9858 18.2826C37.9941 18.3049 37.9989 18.3284 38.0001 18.3521C37.9223 19.1683 37.9218 19.1688 37.0882 19.1693C36.3629 19.1693 35.6371 19.1693 34.888 19.1435C35.4713 19.1095 35.3727 18.656 35.3808 18.3319C35.4088 17.2078 35.4052 16.0827 35.392 14.9586C35.3859 14.4174 35.3366 14.3854 34.8137 14.2586H37.818C37.7972 14.5178 37.7758 14.7816 37.7483 15.1235C37.6975 15.0043 37.6878 14.9389 37.6507 14.8968C37.5617 14.7953 37.4711 14.6431 37.3628 14.6254C37.0195 14.5792 36.6733 14.5573 36.3268 14.5599C36.2795 14.5599 36.191 14.6756 36.1895 14.7395C36.1778 15.2295 36.1788 15.72 36.1895 16.2105C36.1895 16.2699 36.2688 16.3784 36.3126 16.3794C36.7733 16.386 37.2423 16.4626 37.7168 16.244C37.6931 16.5666 37.6703 16.87 37.6486 17.154C37.5632 17.0221 37.5032 16.838 37.3776 16.7604C37.2519 16.6828 37.0536 16.6914 36.8868 16.6828C36.6676 16.6716 36.4478 16.6797 36.2098 16.6797C36.1979 16.7469 36.1896 16.8146 36.1849 16.8826C36.1824 17.363 36.1793 17.8434 36.1824 18.3237C36.1854 18.7103 36.2663 18.7995 36.6457 18.8467C36.7807 18.8639 36.9165 18.8739 37.0526 18.8766C37.4925 18.8848 37.8796 18.8087 37.9309 18.2329L37.9858 18.2826Z" fill="#616161"/>
<path d="M86.8306 14.2607V15.0865C86.7116 14.6583 86.379 14.6076 86.0169 14.5975C85.7804 14.5909 85.5439 14.5772 85.3048 14.564C85.168 14.5564 85.107 14.6086 85.1075 14.7542C85.1126 16.0381 85.1075 17.3219 85.1182 18.6058C85.1217 18.975 85.1787 19.0065 85.7844 19.15H83.8711C84.1905 19.11 84.2835 18.9096 84.2866 18.623C84.2973 17.6526 84.3146 16.6823 84.3268 15.7119C84.3309 15.4076 84.3186 15.1032 84.3298 14.7989C84.3364 14.6193 84.2652 14.5544 84.0933 14.563C83.7475 14.5802 83.4013 14.5941 83.0548 14.6046C82.7639 14.6132 82.6159 14.8034 82.5177 15.0636L82.4445 15.019L82.6128 14.2074C84.0343 14.3403 85.4187 14.2673 86.8306 14.2607Z" fill="#616161"/>
<path d="M103.931 15.0281C103.978 14.7745 104.019 14.5209 104.078 14.2723C104.086 14.2348 104.177 14.1907 104.227 14.1932C104.631 14.2155 105.033 14.2662 105.437 14.2738C106.149 14.288 106.861 14.2809 107.573 14.2738C107.808 14.2738 108.043 14.2485 108.298 14.2338V15.0454C108.16 14.6365 107.821 14.6066 107.469 14.5965C107.232 14.5899 106.995 14.565 106.757 14.5767C106.694 14.5802 106.585 14.6878 106.585 14.7481C106.576 16.0162 106.557 17.2844 106.595 18.5525C106.61 19.0313 106.598 19.0567 107.228 19.1439H105.347C105.448 19.0841 105.621 19.0334 105.696 18.9182C105.776 18.7949 105.786 18.6113 105.787 18.4536C105.795 17.2281 105.792 16.0025 105.797 14.777C105.797 14.6249 105.746 14.5604 105.591 14.568C105.235 14.5853 104.879 14.5904 104.526 14.6096C104.248 14.6243 104.083 14.7922 104.004 15.0606L103.931 15.0281Z" fill="#616161"/>
<path d="M47.8886 19.1409C48.3499 19.0395 48.4104 18.9811 48.4181 18.4916C48.4313 17.5968 48.4252 16.7015 48.4267 15.8063C48.4267 15.4684 48.4206 15.1301 48.4267 14.7918C48.4308 14.6269 48.3667 14.5589 48.205 14.566C47.8489 14.5812 47.4929 14.5858 47.1404 14.6081C46.8658 14.6254 46.7178 14.8136 46.6318 15.0647L46.5677 15.0378C46.614 14.7791 46.6547 14.5189 46.7127 14.2627C46.7198 14.2302 46.8175 14.1988 46.8724 14.1993C48.1643 14.2099 49.4561 14.2282 50.748 14.2343C50.8909 14.2343 50.9514 14.2627 50.9514 14.4078C50.9479 14.635 50.9514 14.8643 50.926 15.1068C50.8116 14.6203 50.4423 14.6036 50.0614 14.5995C49.8416 14.596 49.6224 14.5828 49.4032 14.5706C49.2674 14.563 49.2028 14.6107 49.2033 14.7578C49.2079 15.999 49.1988 17.2433 49.2145 18.482C49.2217 19.0085 49.2979 19.0608 49.8493 19.1414L47.8886 19.1409Z" fill="#616161"/>
<path d="M45.3115 14.2881C45.2225 14.3048 45.1335 14.3251 45.044 14.3388C44.8716 14.3621 44.7958 14.4717 44.7826 14.631C44.7658 14.8339 44.745 15.0368 44.7465 15.2361C44.7533 16.2405 44.7638 17.2446 44.778 18.2487C44.7846 18.7052 44.8909 18.8188 45.3375 18.8477C45.5725 18.8629 45.809 18.8558 46.0449 18.8538C46.3796 18.8503 46.5805 18.6813 46.6507 18.3547C46.6633 18.3152 46.6803 18.2772 46.7015 18.2416L46.7697 18.2532C46.7244 18.5231 46.6878 18.796 46.6242 19.0618C46.6125 19.1125 46.49 19.1632 46.4208 19.1632C45.8105 19.1607 45.2002 19.1424 44.5939 19.1384C44.3071 19.1384 44.0197 19.1576 43.7328 19.1653C43.6535 19.1653 43.5737 19.1582 43.4277 19.1511C43.8976 19.0258 43.9424 18.9695 43.9475 18.519C43.9607 17.4305 43.9719 16.3417 43.981 15.2528C43.981 15.1514 43.981 15.0499 43.9775 14.9485C43.9536 14.4245 43.9195 14.3849 43.418 14.2652H45.3034L45.3115 14.2881Z" fill="#616161"/>
<path d="M37.7686 11.9765C37.7117 11.9787 37.655 11.9692 37.6019 11.9489C37.5488 11.9285 37.5004 11.8975 37.4596 11.8579C37.4188 11.8183 37.3866 11.7709 37.3648 11.7184C37.3429 11.666 37.332 11.6097 37.3327 11.553C37.3298 11.492 37.3397 11.4311 37.3616 11.3741C37.3835 11.3172 37.4171 11.2653 37.4601 11.2219C37.5031 11.1785 37.5546 11.1444 37.6115 11.1219C37.6684 11.0993 37.7293 11.0888 37.7905 11.0909C38.0448 11.097 38.2238 11.272 38.2263 11.5185C38.2294 11.7944 38.0483 11.9755 37.7686 11.9765Z" fill="#9C9C9C"/>
<path d="M58.945 11.4627C58.7821 11.3026 58.6276 11.1341 58.4822 10.958C58.0519 10.4375 57.6282 9.91203 57.2209 9.41087C57.4691 9.12326 57.7234 8.88079 57.9136 8.59571C58.2462 8.09658 58.3021 7.55433 57.9914 7.01817C57.6862 6.49215 57.1573 6.37802 56.6131 6.36179C55.8263 6.33795 55.0364 6.35468 54.2496 6.3562C54.1929 6.36067 54.1365 6.36983 54.0813 6.3836C54.1795 6.44461 54.2917 6.47953 54.4073 6.48505C54.6494 6.50483 54.775 6.63215 54.7887 6.8736C54.7938 6.97505 54.8121 7.0765 54.8127 7.17795C54.8127 8.40397 54.8182 9.63 54.8127 10.856C54.8151 11.1173 54.7856 11.378 54.7247 11.6321C54.6977 11.7336 54.5365 11.872 54.4312 11.8766C53.7293 11.9086 53.5305 11.9811 53.1363 11.1573C53.0997 11.0812 53.0671 11.0052 53.0346 10.9245C52.4355 9.4457 51.8357 7.9674 51.2352 6.48961C51.1935 6.38816 51.105 6.30396 51.0383 6.21164C50.9671 6.30751 50.8715 6.39323 50.8278 6.49976C50.5003 7.29665 50.1849 8.09861 49.8615 8.89753C49.5136 9.75985 49.1693 10.6222 48.8076 11.4774C48.6871 11.764 48.4181 11.9157 48.1917 11.8797C47.8515 11.8264 47.7065 11.6823 47.6424 11.3141C47.5946 11.0402 47.5585 10.7642 47.5178 10.4888C47.3205 9.16181 47.1252 7.83484 46.9233 6.50889C46.908 6.40744 46.8475 6.31309 46.8083 6.2157C46.7371 6.28824 46.6659 6.36026 46.5963 6.43432C46.5867 6.44824 46.5792 6.46344 46.5739 6.47947C45.9517 7.78276 45.3293 9.08572 44.7068 10.3883C44.6712 10.4629 44.631 10.5349 44.5766 10.642C44.5191 10.537 44.4749 10.4665 44.4413 10.3929C43.8805 9.23806 43.32 8.08305 42.7599 6.92788C42.6582 6.72498 42.5605 6.51853 42.4547 6.31918C42.4303 6.27403 42.3698 6.24867 42.3256 6.21418C42.2836 6.25915 42.2466 6.30846 42.2152 6.36128C42.1944 6.41668 42.1815 6.47475 42.1771 6.53374C42.0194 7.57665 41.8653 8.62006 41.7056 9.66246C41.6125 10.2712 41.5123 10.8799 41.4121 11.486C41.3699 11.7397 41.2382 11.9035 40.9544 11.8969C40.9164 11.9014 40.8791 11.9108 40.8435 11.9248L40.8466 11.9801H42.5911C42.5651 11.9111 42.5356 11.8989 42.5056 11.8959C41.994 11.8452 41.9461 11.7909 41.997 11.2791C42.0006 11.2451 42.0072 11.2121 42.0112 11.1776C42.0911 10.5689 42.1699 9.95565 42.2513 9.34543C42.2976 8.99999 42.3479 8.65506 42.3963 8.31013C43.0508 9.54985 43.6062 10.818 44.3086 12.009L44.4103 12.006C45.0206 10.7495 45.6309 9.49253 46.2616 8.1889C46.2866 8.23777 46.3073 8.28868 46.3237 8.34107C46.4635 9.35253 46.6064 10.3635 46.7346 11.3765C46.757 11.5525 46.7143 11.7366 46.698 11.9699H49.9021C49.8782 11.9167 49.8513 11.8959 49.8198 11.8923C49.3661 11.8416 49.3173 11.7828 49.4551 11.3612C49.5858 10.9605 49.7343 10.5654 49.8945 10.1753C49.921 10.1114 50.0471 10.0556 50.1295 10.0536C50.5872 10.0419 51.045 10.0581 51.5027 10.0434C51.6833 10.0378 51.757 10.1114 51.8114 10.2666C51.9584 10.68 52.1166 11.0888 52.2727 11.4997C52.3348 11.6651 52.44 11.8355 52.1791 11.9613C52.8144 12.0628 56.3364 12.0283 56.4544 11.8994L56.1365 11.8832C55.8858 11.8715 55.7383 11.7412 55.7297 11.4911C55.7058 10.9428 55.6915 10.3939 55.6788 9.84456C55.6788 9.78623 55.7017 9.7 55.7444 9.67159C55.9367 9.54377 56.5271 9.68782 56.6675 9.87804C57.08 10.436 57.4757 11.0057 57.9222 11.5347C58.1035 11.7443 58.3462 11.8919 58.6159 11.9568C59.0086 12.0374 59.4241 12.0075 59.83 12.0171C59.8691 12.0171 59.9098 11.9831 59.9495 11.9664C59.5704 11.9064 59.2194 11.7304 58.945 11.4627ZM50.0842 9.66703L50.8008 7.75419L50.868 7.74404C51.1004 8.37303 51.3333 9.00253 51.58 9.66703H50.0842ZM56.2561 9.33123C55.5567 9.25717 55.6844 9.28456 55.6757 8.71796C55.6722 8.47347 55.6757 8.22897 55.6757 7.98397C55.6757 7.63803 55.6818 7.29208 55.6727 6.94664C55.6681 6.75845 55.752 6.70367 55.927 6.68947C57.0698 6.59867 57.4101 7.53759 57.2956 8.371C57.2792 8.49643 57.2486 8.61962 57.2046 8.73825C57.0378 9.17347 56.7214 9.38043 56.2566 9.33123H56.2561Z" fill="#9C9C9C"/>
<path d="M64.9862 16.5656C64.9552 15.4015 64.2879 14.565 63.1426 14.3555C62.6253 14.2612 62.0852 14.2789 61.5547 14.2668C60.9556 14.2531 60.356 14.2637 59.6984 14.2637C60.3046 14.3956 60.3265 14.423 60.327 14.9987C60.327 16.0376 60.327 17.0784 60.3244 18.1158C60.3244 18.309 60.2934 18.5023 60.2888 18.6956C60.2822 18.9756 60.15 19.1196 59.8713 19.1521C60.1892 19.1521 60.5075 19.1496 60.8254 19.1521C61.4576 19.1572 62.0969 19.2165 62.7214 19.1612C64.1216 19.038 65.0244 17.9743 64.9862 16.5656ZM64.1506 17.151C64.1033 17.6232 64.0158 18.064 63.6689 18.4191C63.3834 18.7141 63 18.8954 62.5902 18.9289C62.2495 18.9588 61.8996 18.9289 61.5573 18.8903C61.3075 18.863 61.1372 18.7103 61.1356 18.4338C61.1326 17.7927 61.1356 17.1515 61.1356 16.5103H61.1067C61.1067 15.9524 61.1168 15.3944 61.1021 14.8364C61.096 14.6142 61.1962 14.526 61.3905 14.5097C62.9635 14.3829 64.3383 15.2818 64.1516 17.151H64.1506Z" fill="#616161"/>
<path d="M42.525 18.6113C42.4528 18.4683 42.3841 18.3227 42.3241 18.1741C41.8191 16.9298 41.3181 15.6845 40.812 14.4407C40.7683 14.3322 40.6981 14.2343 40.605 14.0684C40.5089 14.2713 40.4418 14.3925 40.3899 14.5219C39.8619 15.8292 39.3364 17.1372 38.8132 18.446C38.6703 18.8051 38.5111 19.1302 38.0533 19.1449H39.538C39.155 19.0577 39.0965 18.9654 39.2267 18.5748C39.3284 18.2623 39.4622 17.9595 39.5649 17.647C39.6158 17.4913 39.7012 17.4365 39.8609 17.4401C40.2424 17.4482 40.6238 17.4497 41.0053 17.4401C41.1686 17.4355 41.253 17.4984 41.3059 17.6455C41.4371 18.0107 41.5836 18.3709 41.7082 18.7386C41.7519 18.867 41.7484 19.011 41.7677 19.1561H43.2462C42.8846 19.1236 42.675 18.9075 42.525 18.6113ZM39.7689 17.1337L40.3985 15.4532L40.486 15.4461C40.6894 15.9944 40.8929 16.5422 41.1131 17.1337H39.7689Z" fill="#616161"/>
</g>
<defs>
<clipPath id="clip0">
<rect width="109" height="24" fill="white" transform="translate(0 0.5)"/>
</clipPath>
</defs>
</svg>
