<svg width="42" height="25" viewBox="0 0 42 25" fill="none" xmlns="http://www.w3.org/2000/svg">
<g clip-path="url(#clip0)">
<path d="M5.15492 21.2276C4.57217 21.8036 3.85467 22.1036 3.003 22.1036C2.15133 22.1036 1.43442 21.8036 0.851667 21.2276C0.268917 20.651 0 19.9136 0 19.0838C0 18.2306 0.291083 17.516 0.851667 16.94C1.43442 16.3634 2.15133 16.064 3.003 16.064C3.85467 16.064 4.57217 16.3634 5.15492 16.94C5.73767 17.516 6.00658 18.254 6.00658 19.0838C6.02875 19.9364 5.73767 20.651 5.15492 21.2276ZM1.70333 20.4668C2.03933 20.8358 2.46517 20.9972 3.003 20.9972C3.51867 20.9972 3.96667 20.8124 4.30325 20.4668C4.63925 20.0978 4.81833 19.637 4.81833 19.0838C4.81833 18.5072 4.63925 18.0464 4.30325 17.7002C3.96667 17.3318 3.54083 17.1704 3.003 17.1704C2.48792 17.1704 2.03933 17.3546 1.70333 17.7002C1.36733 18.0692 1.18767 18.5306 1.18767 19.0838C1.21042 19.6598 1.36733 20.1212 1.70333 20.4668ZM10.668 16.064C11.4298 16.064 12.1024 16.3406 12.6403 16.8938C13.1781 17.447 13.447 18.1616 13.447 19.0838C13.447 19.9826 13.1781 20.7206 12.6403 21.2966C12.1024 21.8732 11.4748 22.1498 10.7578 22.1498C10.0403 22.1498 9.3905 21.827 8.80775 21.1814V24.224H7.59792V16.133H8.80775V17.1704C9.2785 16.4324 9.90617 16.064 10.668 16.064ZM8.78558 19.1066C8.78558 19.6598 8.9425 20.1212 9.2785 20.4896C9.6145 20.8586 10.0182 21.02 10.4889 21.02C10.7185 21.0213 10.9459 20.9749 11.1577 20.8838C11.3695 20.7927 11.5612 20.6586 11.7215 20.4896C12.0803 20.144 12.2593 19.6832 12.2593 19.1066C12.2593 18.5306 12.0803 18.0692 11.7437 17.7002C11.5875 17.5241 11.3971 17.3838 11.1847 17.2885C10.9723 17.1932 10.7428 17.145 10.5111 17.147C10.0403 17.147 9.6145 17.3318 9.30125 17.7002C8.9425 18.0692 8.78558 18.5306 8.78558 19.1066ZM20.5742 19.637H16.0918C16.114 20.075 16.3158 20.4206 16.6518 20.6744C17.0049 20.9334 17.4287 21.0705 17.8623 21.0662C18.5798 21.0662 19.1176 20.8358 19.4985 20.3744L20.1933 21.1586C19.5656 21.8036 18.781 22.1498 17.7724 22.1498C16.9657 22.1498 16.2937 21.8732 15.7331 21.3194C15.1731 20.7662 14.8814 20.0288 14.8814 19.1066C14.8814 18.1844 15.1731 17.447 15.7331 16.8938C16.3158 16.3406 16.9884 16.064 17.7503 16.064C18.5121 16.064 19.1847 16.2944 19.7447 16.7786C20.2831 17.2622 20.552 17.9312 20.552 18.7838V19.637H20.5742ZM16.0918 18.6458H19.3638C19.3638 18.1616 19.2068 17.7698 18.9158 17.516C18.6241 17.2394 18.2432 17.1242 17.7952 17.1242C17.3466 17.1242 16.9657 17.2622 16.6075 17.5388C16.2709 17.816 16.0918 18.1844 16.0918 18.6458ZM23.6448 18.8528V22.034H22.4344V16.133H23.6448V17.2166C23.8349 16.8633 24.1135 16.5687 24.4516 16.3634C24.7842 16.1627 25.1638 16.0592 25.5494 16.064C26.1998 16.064 26.7149 16.271 27.1186 16.6634C27.5217 17.078 27.7235 17.6546 27.7235 18.4148V22.0112H26.5131V18.7838C26.5131 17.7002 26.0651 17.147 25.1913 17.147C24.7654 17.147 24.4067 17.2856 24.115 17.5622C23.8018 17.885 23.6448 18.2996 23.6448 18.8528Z" fill="#9C9C9C"/>
<path d="M34.4698 22.034H33.3714V21.2504C32.9006 21.827 32.2735 22.1264 31.4662 22.1264C30.8613 22.1264 30.3684 21.9422 29.9875 21.5966C29.606 21.2504 29.4047 20.7896 29.4047 20.213C29.4047 19.637 29.606 19.199 30.0318 18.9224C30.4576 18.6458 31.0182 18.4844 31.713 18.4844H33.2815V18.254C33.2815 17.4698 32.8557 17.078 32.004 17.078C31.4662 17.078 30.9284 17.2856 30.3456 17.6774L29.8078 16.8938C30.5025 16.3172 31.2871 16.0406 32.1837 16.0406C32.8557 16.0406 33.4163 16.2254 33.8421 16.571C34.268 16.9166 34.492 17.4698 34.492 18.2306V22.034H34.4698ZM33.2594 19.8446V19.337H31.9148C31.0404 19.337 30.6145 19.6136 30.6145 20.1668C30.6145 20.4434 30.7265 20.6744 30.9284 20.8358C31.1524 20.9972 31.444 21.0662 31.8249 21.0662C32.2059 21.0662 32.5424 20.951 32.8335 20.7434C33.1024 20.513 33.2594 20.213 33.2594 19.8446ZM38.8401 22.1264C38.1226 22.1264 37.4949 21.8498 36.9571 21.2738C36.4193 20.6972 36.1504 19.9598 36.1504 19.0604C36.1504 18.1616 36.4193 17.4236 36.9571 16.8704C37.4949 16.3172 38.1675 16.0406 38.9294 16.0406C39.6918 16.0406 40.3189 16.4096 40.7896 17.147V16.1096H42V24.1322H40.7896V21.089C40.2069 21.8036 39.557 22.1264 38.8401 22.1264ZM37.3386 19.1066C37.3386 19.6598 37.5177 20.1212 37.8764 20.4896C38.2346 20.8358 38.6383 21.02 39.109 21.02C39.5798 21.02 39.9829 20.8358 40.3189 20.4896C40.6554 20.1212 40.8124 19.6832 40.8124 19.1066C40.8124 18.5534 40.6554 18.0692 40.3189 17.7002C39.9829 17.3318 39.5798 17.147 39.109 17.147C38.6383 17.147 38.2125 17.3318 37.8764 17.7002C37.5177 18.0692 37.3386 18.5306 37.3386 19.1066ZM7.62012 8.20283V7.07363C9.05453 7.07363 13.4249 7.09643 15.1953 7.09643C19.0499 7.09643 22.9052 7.07363 26.7599 7.07363C28.1721 7.07363 29.3598 6.17423 29.7185 4.79123C29.9425 3.93803 29.8305 3.13163 29.2478 2.43983C28.7321 1.84043 28.1045 1.58723 27.3426 1.63283C26.603 1.70243 25.9309 2.37083 25.8184 3.13163C25.7513 3.73103 25.931 4.19183 26.4239 4.51463C26.782 4.74503 27.1857 4.76843 27.5894 4.58363C27.7235 4.51463 27.8355 4.42223 27.9254 4.28423C28.0823 4.00763 28.3961 3.91523 28.6423 4.07663C28.9112 4.21463 29.001 4.53743 28.8669 4.83743C28.665 5.25203 28.329 5.50583 27.9254 5.66723C26.5359 6.22043 24.9667 5.29823 24.7427 3.77663C24.5858 2.67023 25.1236 1.49483 26.0873 0.918229C26.8719 0.434029 27.7235 0.388429 28.553 0.687829C29.7856 1.12583 30.5702 2.02523 30.8391 3.33863C31.0182 4.28423 30.8391 5.18303 30.3905 6.01283C29.7407 7.21163 28.7321 7.90343 27.4097 8.13383C27.1857 8.18003 26.9617 8.18003 26.7377 8.18003C24.4516 8.20283 10.2422 8.20283 7.62012 8.20283Z" fill="#616161"/>
<path d="M16.6746 6.0014H10.9037V5.0564H20.9102C21.6364 5.0564 22.0949 4.7234 22.2711 4.0574C22.3732 3.6398 22.2419 3.0296 21.9707 2.6906C21.7572 2.435 21.336 2.2904 20.9195 2.3126C20.6034 2.3306 20.2843 2.6528 20.2475 2.9948C20.2119 3.251 20.2954 3.4394 20.4989 3.5798C20.6611 3.6722 20.8297 3.686 20.9919 3.6128C21.1809 3.548 21.3739 3.548 21.5291 3.7082C21.7829 4.0022 21.63 4.3958 21.2841 4.538C20.4184 4.8782 19.4361 4.2998 19.3101 3.365C19.2104 2.7008 19.551 1.985 20.1314 1.622C20.5771 1.3562 21.3104 1.3268 21.8599 1.5152C22.5459 1.7504 23.0411 2.4362 23.226 3.2774C23.3421 3.8036 23.2435 4.3496 22.9612 4.877C22.5966 5.5334 22.1159 5.8412 21.3022 5.9978C21.1937 6.0206 21.1015 6.0242 20.888 6.0242H17.1226L17.0952 6.0224C16.9954 6.005 16.8998 6.0014 16.6746 6.0014ZM33.1859 10.6616C33.5219 11.3534 33.5032 12.035 33.0838 12.6584C32.6935 13.235 32.1458 13.4978 31.4539 13.4468C30.7761 13.3952 30.2144 12.833 30.1158 12.1406C30.1028 12.0893 30.0946 12.0369 30.0913 11.984C30.0884 11.945 30.0884 11.9156 30.0884 11.8454L30.0895 11.8208C30.1063 11.7022 30.1642 11.5938 30.2525 11.5156C30.3408 11.4374 30.4537 11.3947 30.5702 11.3954C30.8111 11.3954 31.0159 11.5748 31.0485 11.8112C31.0555 11.8484 31.0596 11.876 31.0678 11.9378C31.0725 12.0023 31.0856 12.0659 31.1069 12.1268C31.2072 12.3836 31.4755 12.512 31.7654 12.4376C32.1738 12.3416 32.4351 11.9612 32.3972 11.513C32.3575 11.0054 31.9795 10.5692 31.4703 10.4684C31.4327 10.4595 31.3944 10.4545 31.3559 10.4534C31.3107 10.4508 31.2654 10.4498 31.22 10.4504C29.9968 10.4504 28.3203 10.4534 24.0258 10.4618C19.7313 10.4708 18.0548 10.4738 16.8315 10.4738H16.6635V9.413H31.2871C32.13 9.413 32.7828 9.8588 33.1859 10.6616Z" fill="#616161"/>
</g>
<defs>
<clipPath id="clip0">
<rect width="42" height="24" fill="white" transform="translate(0 0.5)"/>
</clipPath>
</defs>
</svg>
